<!DOCTYPE svg PUBLIC "-//W3C//DTD SVG 1.1//EN" "http://www.w3.org/Graphics/SVG/1.1/DTD/svg11.dtd">
<!-- Uploaded to: SVG Repo, www.svgrepo.com, Transformed by: SVG Repo Mixer Tools -->
<svg version="1.1" id="Layer_1" xmlns="http://www.w3.org/2000/svg" xmlns:xlink="http://www.w3.org/1999/xlink" viewBox="0 0 512 512" xml:space="preserve" width="800px" height="800px" fill="#000000">
<g id="SVGRepo_bgCarrier" stroke-width="0"/>
<g id="SVGRepo_tracerCarrier" stroke-linecap="round" stroke-linejoin="round"/>
<g id="SVGRepo_iconCarrier"> <rect x="19.187" y="1.613" style="fill:#3E3B43;" width="259.028" height="421.434"/> <circle style="fill:#FF3F62;" cx="148.149" cy="168.851" r="66.124"/> <g> <rect x="19.187" y="362.228" style="fill:#1D1D20;" width="259.028" height="60.82"/> <rect x="19.187" y="1.613" style="fill:#1D1D20;" width="259.028" height="64.579"/> </g> <g> <path style="fill:#FFBCAB;" d="M136.061,136.447l40.952,31.428c0.641,0.492,0.641,1.458,0,1.95l-40.952,31.428 c-0.808,0.621-1.977,0.044-1.977-0.974v-62.856C134.085,136.403,135.254,135.826,136.061,136.447z"/> <rect x="76.064" y="285.475" style="fill:#FFBCAB;" width="140.481" height="21.243"/> </g> <g> <path style="fill:#FF3F62;" d="M76.067,324.755c-4.259,0-7.709-3.452-7.709-7.709v-41.9c0-4.258,3.451-7.709,7.709-7.709 c4.259,0,7.709,3.452,7.709,7.709v41.9C83.776,321.303,80.324,324.755,76.067,324.755z"/> <path style="fill:#FF3F62;" d="M216.545,324.755c-4.259,0-7.709-3.452-7.709-7.709v-41.9c0-4.258,3.451-7.709,7.709-7.709 s7.709,3.452,7.709,7.709v41.9C224.254,321.303,220.803,324.755,216.545,324.755z"/> </g> <g> <path style="fill:#3E3B43;" d="M312.65,512c-36.367,0-65.952-29.586-65.952-65.952c0-4.258,3.451-7.709,7.709-7.709 c4.259,0,7.709,3.452,7.709,7.709c0,27.864,22.67,50.534,50.534,50.534s50.534-22.67,50.534-50.534l-0.222-37.18V146.873 c0-4.258,3.451-7.709,7.709-7.709s7.709,3.452,7.709,7.709v261.949l0.222,37.18C378.603,482.413,349.016,512,312.65,512z"/> <path style="fill:#3E3B43;" d="M368.92,512h-56.27c-4.259,0-7.709-3.452-7.709-7.709s3.451-7.709,7.709-7.709h56.27 c27.864,0,50.534-22.67,50.534-50.534l-0.222-37.18V196.261c0-4.258,3.451-7.709,7.709-7.709s7.709,3.452,7.709,7.709v212.561 l0.222,37.18C434.872,482.413,405.287,512,368.92,512z"/> </g> <g> <path style="fill:#898590;stroke:#77757E;stroke-miterlimit:10;" d="M185.384,40.755h-73.366c-4.259,0-7.709-3.452-7.709-7.709 s3.451-7.709,7.709-7.709h73.366c4.259,0,7.709,3.452,7.709,7.709S189.642,40.755,185.384,40.755z"/> <rect x="229.394" y="423.048" style="fill:#898590;stroke:#77757E;stroke-miterlimit:10;" width="48.814" height="21.169"/> </g> <polygon style="opacity:0.17;fill:#FFFFFF;enable-background:new ;" points="278.214,152.467 19.187,316.929 19.187,240.056 278.214,75.594 "/> <g> <path style="fill:#FFF5CC;" d="M370.672,0c-6.438,0-11.706,5.267-11.706,11.706v10.066c0-7.915-6.476-14.39-14.39-14.39h-7.535 c-17.61,0-32.019,14.408-32.019,32.019v12.721c0,17.61,14.408,32.019,32.019,32.019h7.535c7.915,0,14.39-6.476,14.39-14.39v65.418 c0,6.438,5.268,11.706,11.706,11.706s11.705-5.267,11.705-11.706V11.706C382.377,5.267,377.11,0,370.672,0z"/> <path style="fill:#FFF5CC;" d="M460.795,58.775h-7.535c-7.915,0-14.39,6.476-14.39,14.39V63.099 c0-6.438-5.267-11.706-11.705-11.706c-6.438,0-11.706,5.267-11.706,11.706v123.463c0,6.438,5.268,11.706,11.706,11.706 c6.438,0,11.705-5.267,11.705-11.706v-65.42c0,7.915,6.476,14.39,14.39,14.39h7.535c17.61,0,32.019-14.408,32.019-32.019v-12.72 C492.812,73.184,478.405,58.775,460.795,58.775z"/> </g> <g> <path style="fill:#FFD422;" d="M461.208,58.775h-7.535c-7.915,0-14.39,6.476-14.39,14.39v47.977c0,7.915,6.476,14.39,14.39,14.39 h7.535V58.775z"/> <path style="fill:#FFD422;" d="M336.732,84.137h7.535c7.915,0,14.39-6.476,14.39-14.39V21.77c0-7.915-6.476-14.39-14.39-14.39 h-7.535V84.137z"/> </g> </g>
</svg>